<?xml version="1.0" standalone="no"?>
<!DOCTYPE svg PUBLIC "-//W3C//DTD SVG 1.1//EN" "http://www.w3.org/Graphics/SVG/1.1/DTD/svg11.dtd" >
<svg xmlns="http://www.w3.org/2000/svg">
<metadata>Generated by IcoMoon</metadata>
<defs>
<font id="video-player-icons" horiz-adv-x="1024">
<font-face units-per-em="1024" ascent="960" descent="-64" />
<missing-glyph horiz-adv-x="1024" />
<glyph unicode="&#x20;" horiz-adv-x="512" d="" />
<glyph unicode="&#xe900;" d="M82.75 493.050c-25-25-25-65.6 0-90.6l320-320c25-25 65.6-25 90.6 0s25 65.6 0 90.6l-274.8 274.8 274.6 274.8c25 25 25 65.6 0 90.6s-65.6 25-90.6 0l-320-320 0.2-0.2z" />
<glyph unicode="&#xe901;" d="M466.75 493.050c-25-25-25-65.6 0-90.6l320-320c25-25 65.6-25 90.6 0s25 65.6 0 90.6l-274.8 274.8 274.6 274.8c25 25 25 65.6 0 90.6s-65.6 25-90.6 0l-320-320 0.2-0.2z" />
<glyph unicode="&#xe902;" d="M941.25 402.95c25 25 25 65.6 0 90.6l-320 320c-25 25-65.6 25-90.6 0s-25-65.6 0-90.6l274.8-274.8-274.6-274.8c-25-25-25-65.6 0-90.6s65.6-25 90.6 0l320 320-0.2 0.2z" />
<glyph unicode="&#xe903;" d="M557.25 402.95c25 25 25 65.6 0 90.6l-320 320c-25 25-65.6 25-90.6 0s-25-65.6 0-90.6l274.8-274.8-274.6-274.8c-25-25-25-65.6 0-90.6s65.6-25 90.6 0l320 320-0.2 0.2z" />
<glyph unicode="&#xe904;" glyph-name="backward-step" horiz-adv-x="640" d="M535 78.8c19-15.8 45.6-19.4 68.2-8.8s36.8 33.2 36.8 58v640c0 24.8-14.4 47.4-36.8 58s-49 7.2-68.2-8.8l-407-339.2v290c0 35.4-28.6 64-64 64s-64-28.6-64-64v-640c0-35.4 28.6-64 64-64s64 28.6 64 64v290l23-19.2 384-320z" />
<glyph unicode="&#xe905;" glyph-name="compress" horiz-adv-x="896" d="M320 832c0 35.4-28.6 64-64 64s-64-28.6-64-64v-128h-128c-35.4 0-64-28.6-64-64s28.6-64 64-64h192c35.4 0 64 28.6 64 64v192zM64 320c-35.4 0-64-28.6-64-64s28.6-64 64-64h128v-128c0-35.4 28.6-64 64-64s64 28.6 64 64v192c0 35.4-28.6 64-64 64h-192zM704 832c0 35.4-28.6 64-64 64s-64-28.6-64-64v-192c0-35.4 28.6-64 64-64h192c35.4 0 64 28.6 64 64s-28.6 64-64 64h-128v128zM640 320c-35.4 0-64-28.6-64-64v-192c0-35.4 28.6-64 64-64s64 28.6 64 64v128h128c35.4 0 64 28.6 64 64s-28.6 64-64 64h-192z" />
<glyph unicode="&#xe906;" glyph-name="expand" horiz-adv-x="896" d="M64 896c-35.4 0-64-28.6-64-64v-192c0-35.4 28.6-64 64-64s64 28.6 64 64v128h128c35.4 0 64 28.6 64 64s-28.6 64-64 64h-192zM128 256c0 35.4-28.6 64-64 64s-64-28.6-64-64v-192c0-35.4 28.6-64 64-64h192c35.4 0 64 28.6 64 64s-28.6 64-64 64h-128v128zM640 896c-35.4 0-64-28.6-64-64s28.6-64 64-64h128v-128c0-35.4 28.6-64 64-64s64 28.6 64 64v192c0 35.4-28.6 64-64 64h-192zM896 256c0 35.4-28.6 64-64 64s-64-28.6-64-64v-128h-128c-35.4 0-64-28.6-64-64s28.6-64 64-64h192c35.4 0 64 28.6 64 64v192z" />
<glyph unicode="&#xe907;" glyph-name="forward-step" horiz-adv-x="640" d="M105 78.8c-19-15.8-45.6-19.4-68.2-8.8s-36.8 33.2-36.8 58v640c0 24.8 14.4 47.4 36.8 58s49 7.2 68.2-8.8l407-339.2v290c0 35.4 28.6 64 64 64s64-28.6 64-64v-640c0-35.4-28.6-64-64-64s-64 28.6-64 64v290l-23-19.2-384-320z" />
<glyph unicode="&#xe908;" glyph-name="gear" d="M574.58 908.8c22.034-12.396 32.19-30.974 32.62-55.232 0.26-14.65-0.61-29.44 1.104-43.922 4.408-37.23 47.364-60.52 79.962-42.248 14.094 7.9 25.768 20.732 37.224 32.596 26.56 27.508 65.148 27.54 91.606-0.4 15.766-16.65 31.892-32.974 48.264-49.030 25.34-24.852 25.18-65.752-0.224-90.196-10.5-10.1-21.010-20.482-29.72-32.086-12.48-16.632-12.684-35.658-3.942-53.954 9.192-19.246 24.528-31.428 46.638-32.624 16.61-0.9 33.42 0.328 49.87-1.656 30.072-3.628 51.578-28.87 51.83-59 0.2-23.66 0.116-47.32 0.026-70.98-0.132-35.070-25.58-61.28-60.658-62.318-11.986-0.356-23.992 0-35.988-0.136-25.36-0.284-42.992-12.682-52.99-35.484-9.614-21.93-4.366-44.58 13.254-62.226 7.52-7.534 15.104-15.004 22.566-22.596 24.668-25.106 24.418-63.79-0.398-88.676-16.214-16.262-32.276-32.674-48.382-49.044-28.6-29.064-64.376-28.582-93.202 0.32-12.090 12.122-24.28 25.572-39.102 33.24-31.034 16.060-71.794-7.14-76.364-41.948-1.852-14.116-1.172-28.586-1.33-42.9-0.39-35.604-22.774-58.744-58.564-59.472-24.652-0.5-49.326-0.462-73.98-0.026-37.12 0.656-60.142 24.234-60.408 61.194-0.080 11.33 0.416 22.686-0.182 33.986-1.336 25.238-14.322 42.526-37.9 51.070-22.198 8.044-41.792 2.96-58.34-14.052-9.042-9.294-17.994-18.744-27.71-27.304-22.722-20.022-56.44-20.568-78.364 0.004-21.792 20.448-43.668 41.2-62.58 64.224-20.23 24.632-14.728 59.974 8.456 82.174 10.512 10.064 21.36 20.37 29.344 32.372 23.144 34.796-1.916 82.966-43.848 85.41-12.624 0.736-25.32 0.12-37.98 0.298-37.886 0.53-63.012 25.812-63.198 63.656-0.112 22.994-0.206 45.99 0.044 68.982 0.366 33.794 26.19 59.988 60 60.92 12.986 0.356 25.994-0.068 38.986 0.168 22.684 0.408 42.974 15.148 51.076 36.814 8.264 22.098 2.458 44.98-14.482 61.24-10.504 10.086-21.026 20.446-29.742 32.034-17.12 22.754-12.618 58.78 8.010 78.576 16.774 16.098 33.32 32.466 49.368 49.286 26.464 27.736 65.108 27.734 91.554-0.15 9.122-9.62 18.534-19.136 28.854-27.4 17.344-13.89 37.2-14.436 56.476-5.254 20.060 9.556 31.496 26.24 32.284 49.034 0.404 11.65-0.138 23.332 0.164 34.988 0.854 33.084 18.096 55.96 47.618 63.142 4.466 1.088 9.218 1.368 13.84 1.394 22.994 0.136 46.014 0.692 68.972-0.236 9.7-0.392 19.266-4.060 29.566-6.57zM393.982 601.012c-13.774-13.846-29.54-26.232-40.976-41.796-47.96-65.266-49.446-154.050-5.442-221.114 53.218-81.112 156.296-111.562 244.474-70.82 64.902 29.99 103.64 82.174 112.426 153.874 8.53 69.608-15.086 128.358-68.214 173.356-69.668 59.008-167.276 61.026-242.268 6.5z" />
<glyph unicode="&#xe909;" glyph-name="mini-screen" d="M677.999 101.028c-196.61 0-392.22-0.002-587.83 0.002-44.767 0.001-71.139 26.51-71.14 71.503-0.002 183.28-0.019 366.561 0.015 549.841 0.006 33.52 18.637 58.87 49.241 66.564 6.366 1.6 13.183 1.953 19.793 1.955 283.918 0.092 567.836 0.091 851.754 0.067 42.034-0.004 69.126-27.261 69.131-69.494 0.022-183.614 0.021-367.227 0-550.841-0.005-42.711-27.076-69.583-70.039-69.591-86.641-0.018-173.283-0.005-260.925-0.005zM919.028 328.999c0 123.814 0 247.628 0 371.222-270.847 0-540.232 0-809.502 0 0-169.973 0-339.139 0-508.619 269.939 0 539.324 0 809.502 0 0 45.549 0 90.473 0 137.397zM698 236.007c-54.978 0-108.955-0.012-162.933 0.008-15.658 0.006-21.048 5.322-21.052 20.773-0.018 65.306-0.017 130.613-0.001 195.919 0.004 16.126 5.235 21.28 21.549 21.281 104.29 0.008 208.58 0.009 312.87-0.001 16.383-0.002 21.551-5.106 21.555-21.275 0.012-65.306 0.018-130.613-0.004-195.919-0.005-15.454-5.414-20.774-21.045-20.78-49.979-0.017-99.959-0.006-150.938-0.006z" />
<glyph unicode="&#xe90a;" glyph-name="pause" horiz-adv-x="640" d="M96 832c-53 0-96-43-96-96v-576c0-53 43-96 96-96h64c53 0 96 43 96 96v576c0 53-43 96-96 96h-64zM480 832c-53 0-96-43-96-96v-576c0-53 43-96 96-96h64c53 0 96 43 96 96v576c0 53-43 96-96 96h-64z" />
<glyph unicode="&#xe90b;" glyph-name="play" horiz-adv-x="768" d="M146 882c-29.6 18.2-66.8 18.8-97 1.8s-49-49-49-83.8v-704c0-34.8 18.8-66.8 49-83.8s67.4-16.2 97 1.8l576 352c28.6 17.4 46 48.4 46 82s-17.4 64.4-46 82l-576 352z" />
<glyph unicode="&#xe90c;" d="M146.085 731.944c44.173 38.527 94.713 60.948 152.081 69.084 21.923 3.109 43.765 3.604 65.74 3.609 84.653 0.018 169.306 0.006 253.96 0.026 13.441 0.003 13.162 0.062 13.579 13.204 0.58 18.272-0.752 36.5 1.438 54.846 4.767 39.941 59.771 64.787 95.17 37.822 3.961-3.017 7.709-6.372 11.235-9.892 35.848-35.793 71.655-71.628 107.421-107.503 29.173-29.262 29.037-67.451 0.022-96.493-34.859-34.89-69.646-69.852-104.225-105.019-17.039-17.329-36.349-28.13-61.527-23.769-28.514 4.939-48.68 29.556-49.477 60.587-0.411 15.988-0.308 31.996-0.070 47.989 0.094 6.316-1.979 8.909-8.619 8.898-93.985-0.157-187.975 0.462-281.952-0.404-44.261-0.408-84.376-14.195-117.888-44.571-32.203-29.19-51.016-65.21-56.381-108.254-1.48-11.874-1.586-23.967-3.728-35.702-5.581-30.565-31.84-49.508-63.533-46.664-32.195 2.889-54.239 26.323-53.939 58.241 0.837 89.027 33.416 163.943 100.696 223.965z" />
<glyph unicode="&#xe90d;" d="M398.687 73.912c-0.002-11.983 0.054-22.98-0.019-33.977-0.202-30.262-19.955-52.982-49.866-58.679-21.622-4.118-39.743 2.45-54.754 17.239-37.978 37.417-75.726 75.079-112.985 113.211-25.48 26.077-25.585 64.737-0.12 90.807 37.484 38.374 75.392 76.35 113.829 113.767 17.649 17.18 39.304 23.546 63.554 15.408 21.792-7.313 35.076-22.985 39.302-45.212 2.987-15.709 0.742-31.908 1.048-47.885 0.064-3.331 0.337-6.702-0.045-9.99-1.056-9.074 2.478-12.167 11.814-12.092 49.982 0.4 99.969 0.201 149.954 0.204 39.988 0.003 79.978-0.24 119.964 0.066 40.046 0.307 78.149 8.080 111.309 32.197 45.923 33.401 70.996 78.437 73.685 135.312 0.974 20.59 4.051 40.161 21.005 53.998 20.647 16.851 44.048 18.506 67.606 7.723 22.685-10.384 32.674-30.302 32.123-54.384-3.458-151.262-107.665-266.257-245.588-289.667-18.717-3.177-37.578-4.793-56.656-4.74-88.973 0.248-177.947 0.112-266.921 0.115-19.89 0.001-18.176 1.476-18.238-18.436-0.004-1.333-0.001-2.666 0-4.985z" />
<glyph unicode="&#xe90e;" glyph-name="rotate-left" d="M97 512h-17c-26.6 0-48 21.4-48 48v256c0 19.4 11.6 37 29.6 44.4s38.6 3.4 52.4-10.4l83.2-83.2c175.2 173 457.4 172.4 631.6-2 175-175 175-458.6 0-633.6s-458.6-175-633.6 0c-25 25-25 65.6 0 90.6s65.6 25 90.6 0c125-125 327.6-125 452.6 0s125 327.6 0 452.6c-124.4 124.4-325.4 125-450.6 2l82.2-82.4c13.8-13.8 17.8-34.4 10.4-52.4s-25-29.6-44.4-29.6h-239z" />
<glyph unicode="&#xe90f;" glyph-name="video-speed" d="M762.106 23.87c-88.449-51.031-183.042-72.32-284.047-65.571-9.949 0.665-19.92 1.794-29.733 3.543-29.804 5.312-48.192 31.298-44.425 62.187 3.311 27.158 28.508 47.565 57.075 46.337 23.595-1.014 47.275-3.637 70.779-2.553 101.646 4.684 187.908 44.308 258.55 117.487 106.76 110.594 135.717 280.492 69.924 419.555-58.855 124.397-157.885 197.163-293.546 218.112-30.868 4.767-63.102 2.764-94.557 1.076-31.818-1.708-53.067 7.401-64.319 32.474-14.353 31.984 5.336 70.024 40.432 75.573 51.087 8.077 102.406 7.033 153.105-2.85 150.323-29.305 264.819-109.968 341.034-242.995 101.415-177.010 77.546-406.728-56.585-559.631-35.684-40.678-76.515-74.888-123.688-102.742zM729.187 388.724c-99.012-57.159-197.39-113.947-295.831-170.625-27.421-15.788-61.072-4.607-72.102 24.127-2.32 6.044-3.424 12.93-3.435 19.431-0.197 123.589-0.272 247.178-0.074 370.767 0.065 40.702 40.755 63.548 76.644 42.923 101.898-58.56 203.593-117.474 305.364-176.255 5.752-3.322 11.602-6.501 17.176-10.103 31.449-20.33 30.768-65.344-1.283-84.84-8.51-5.177-17.227-10.016-26.458-15.423zM277.597 839.86c35.379-24.409 36.116-65.658 4.497-93.146-23.744-20.642-45.943-43.349-66.838-66.903-22.043-24.847-53.896-30.702-78.925-11.546-24.751 18.944-28.477 52.68-8.437 78.976 25.576 33.561 55.256 63.115 88.947 88.473 18.768 14.126 39.157 15.108 60.756 4.146zM167.497 101.498c-14.070 16.047-28.253 31.108-41.066 47.255-18.908 23.829-14.237 58.163 9.461 76.637 23.96 18.679 57.707 15.153 76.711-8.83 21.42-27.032 45.655-51.039 72.599-72.531 23.047-18.384 26.604-51.511 8.827-75.185-17.683-23.55-51.068-29.743-74.63-12.065-18.039 13.534-34.333 29.394-51.904 44.72zM94.742 557.783c31.543-9.883 46.374-30.682 43.109-62.265-3.511-33.959-2.76-67.689 0.311-101.617 2.118-23.399-8.331-41.453-29.334-52.26-21.356-10.988-41.917-8.211-60.596 6.577-10.565 8.364-16.756 19.733-18.67 33.074-6.136 42.761-6.436 85.671-0.417 128.383 4.817 34.179 29.024 51.443 65.598 48.109z" />
<glyph unicode="&#xe910;" horiz-adv-x="1431" d="M2.236 540.855c1.259 3.495 3.018 5.811 3.7 8.407 18.161 69.209 72.465 111.111 144.232 111.138 45.072 0.016 90.143 0.161 135.213-0.148 7.888-0.054 13.878 1.829 19.923 7.226 95.791 85.524 191.875 170.722 287.717 256.19 34.027 30.34 76.863 30.624 105.463-0.069 13.594-14.589 19.306-32.023 19.295-51.942-0.134-212.692-0.085-425.385-0.085-638.077 0-71.143-0.022-142.289 0.011-213.435 0.016-32.129-13.574-56.217-43.292-69.131-28.808-12.518-55.312-6.439-78.535 14.184-97.644 86.709-195.182 173.539-292.976 260.078-3.687 3.262-9.63 5.556-14.544 5.601-45.812 0.42-91.63 0.25-137.446 0.25-75.888 0-131.743 45.593-147.881 120.396-0.796 62.985-0.796 125.637-0.796 189.33z" />
<glyph unicode="&#xe911;" horiz-adv-x="1431" d="M1161.507 607.858c11.888 11.888 23.185 23.243 34.55 34.539 23.235 23.096 56.049 24.305 77.755 2.911 22.177-21.857 21.542-55.072-1.907-78.671-38.34-38.59-76.901-76.957-115.361-115.424-1.54-1.543-3-3.161-4.896-5.165 2.793-2.969 5.227-5.701 7.812-8.286 37.394-37.427 74.835-74.808 112.211-112.251 23.416-23.458 24.594-55.734 2.951-77.636-22.175-22.434-54.641-21.998-78.544 1.659-37.604 37.217-74.9 74.743-112.226 112.238-2.58 2.594-4.337 6.003-8.404 11.767-4.838-6.401-7.336-10.629-10.692-14.003-37.373-37.565-73.42-73.632-109.547-109.617l-1.071-1.067c-15.807-15.742-34.628-21.712-56.177-14.627-20.035 6.589-32.111 21.106-36.059 41.698-3.644 18.989 2.678 35.069 16.245 48.604 37.718 37.629 75.369 75.329 113.029 113.016 2.6 2.6 5.080 5.319 8.355 8.758-7.157 7.047-14.030 13.73-20.811 20.505-33.738 33.707-67.595 67.298-101.114 101.217-17.35 17.56-21.426 40.517-11.877 61.563 8.809 19.416 30.255 32.064 52.694 30.736 13.985-0.827 25.522-6.962 35.375-16.858 37.597-37.749 75.34-75.356 112.944-113.098 2.598-2.609 4.512-5.9 7.463-9.829l87.304 87.322z" />
<glyph unicode="&#xe912;" horiz-adv-x="1431" d="M993.595 380.154c-12.404-38.612-34.107-70.021-63.425-96.437-24.838-22.38-57.941-22.105-78.826 0.758-21.365 23.389-18.571 56.432 6.692 79.116 47.842 42.957 51.804 109.009 9.243 155.898-3.732 4.109-8.188 7.557-12.234 11.389-22.114 20.956-23.816 54.212-3.926 76.263 19.581 21.705 52.716 24.035 75.275 3.812 67.913-60.888 91.746-135.667 68.934-224.582-0.463-1.798-0.917-3.6-1.733-6.218z" />
<glyph unicode="&#xe913;" horiz-adv-x="1431" d="M1182.599 273.828c-27.735-62.254-67.199-114.65-118.677-158.027-18.881-15.908-39.603-19.981-62.115-9.136-19.689 9.487-30.95 30.273-29.2 52.235 1.364 17.079 10.441 29.647 23.246 40.372 51.37 43.039 87.679 96.609 103.625 161.613 32.529 132.606-3.964 244.419-106.668 334.432-21.336 18.7-26.696 47.202-12.516 70.298 13.71 22.327 42.181 32.544 66.173 21.236 12.125-5.712 22.85-15.271 32.793-24.598 79.961-74.996 126.533-166.769 137.212-276.241 7.159-73.357-4.431-143.78-33.872-212.185z" />
<glyph unicode="&#xe914;" horiz-adv-x="1431" d="M1150.211-66.236c-2.77 1.118-4.416 2.518-6.316 3.316-41.38 17.35-48.45 63.501-15.295 93.73 24.411 22.257 49.311 44.502 70.488 69.695 93.819 111.603 135.843 240.975 124.758 386.305-11.59 151.932-78.405 276.158-194.562 374.131-17.696 14.924-24.958 33.322-19.934 55.531 4.72 20.871 18.41 34.221 39.596 40.515 7.772 0.778 15.288 0.778 24.048-0.013 8.729-4.697 17.33-7.331 23.487-12.744 20.666-18.168 41.754-36.133 60.378-56.3 136.778-148.111 194.361-323.152 170.952-523.016-16.608-141.795-76.896-264.474-176.544-366.963-24.207-24.893-46.818-52.799-81.94-64.186h-19.116z" />
</font>
</defs>
</svg>
